#N canvas 0 22 450 300 10;
#N canvas 109 173 807 595 looper1 0;
#X obj 96 3 adc~;
#X obj 258 320 +~;
#X obj 258 298 +~;
#X obj 258 424 dac~;
#X obj 257 342 *~;
#X obj 114 144 hsl 66 12 0 1 0 0 empty empty empty -2 -8 0 10 -257985
-1 -1 6500 1;
#X obj 286 321 delwrite~ looper1 10000;
#X obj 257 276 *~;
#X obj 357 244 vd~ looper1;
#X obj 316 221 vline~;
#X obj 431 244 loadbang;
#X obj 261 232 *~;
#X obj 251 182 vline~;
#X msg 251 162 \$1 5;
#X floatatom 251 141 5 0 0 0 - - -;
#X obj 114 103 hsl 66 8 0 1 0 0 empty empty empty -2 -8 0 10 -228856
-1 -1 6500 1;
#X msg 249 100 1;
#X text 280 104 in vol;
#X text 430 69 looper;
#X msg 315 201 1 5 \, 0 5 \$1;
#X obj 317 181 f;
#X obj 136 112 bng 15 250 50 0 empty empty empty 17 7 0 10 -258113
-1 -1;
#X floatatom 434 103 5 0 0 0 - - -;
#X obj 433 124 t f f;
#X obj 341 160 - 10;
#X msg 393 203 \$1 5;
#X obj 359 223 vline~;
#X obj 390 272 *~;
#X obj 421 272 vline~;
#X msg 476 275 0 5 \, 1 5 11000;
#X msg 517 248 1;
#X obj 31 123 env~;
#X obj 31 144 / 100;
#X obj 32 163 hsl 66 12 0 1 0 0 empty empty empty -2 -8 0 10 -257985
-1 -1 4930 1;
#X text 479 262 erase;
#X text 541 249 looperr;
#X text 360 341 outvol;
#X obj 95 55 spigot~;
#X obj 100 104 tgl 8 0 empty empty empty 17 7 0 10 -262144 -1 -1 1
1;
#X floatatom 356 118 5 0 0 0 - - -;
#X obj 210 372 *~;
#X obj 104 127 hsl 66 12 0 1 0 0 empty empty empty -2 -8 0 10 -257985
-1 -1 6500 1;
#X obj 569 131 key;
#X floatatom 570 154 5 0 0 0 - - -;
#X obj 574 176 sel 32;
#X msg 436 84 2000;
#X obj 288 77 loadbang;
#X connect 0 0 37 0;
#X connect 0 1 37 0;
#X connect 1 0 4 0;
#X connect 2 0 1 0;
#X connect 2 0 6 0;
#X connect 4 0 3 0;
#X connect 4 0 3 1;
#X connect 5 0 4 1;
#X connect 7 0 2 0;
#X connect 8 0 27 0;
#X connect 9 0 7 1;
#X connect 10 0 30 0;
#X connect 11 0 7 0;
#X connect 12 0 11 0;
#X connect 13 0 12 0;
#X connect 14 0 13 0;
#X connect 15 0 14 0;
#X connect 16 0 15 0;
#X connect 16 0 5 0;
#X connect 16 0 41 0;
#X connect 16 0 38 0;
#X connect 19 0 9 0;
#X connect 20 0 19 0;
#X connect 21 0 20 0;
#X connect 22 0 23 0;
#X connect 23 0 24 0;
#X connect 23 1 25 0;
#X connect 24 0 20 1;
#X connect 25 0 26 0;
#X connect 26 0 8 0;
#X connect 27 0 2 1;
#X connect 28 0 27 1;
#X connect 29 0 28 0;
#X connect 30 0 28 0;
#X connect 31 0 32 0;
#X connect 32 0 33 0;
#X connect 37 1 31 0;
#X connect 37 1 11 1;
#X connect 37 1 40 0;
#X connect 38 0 37 1;
#X connect 39 0 24 0;
#X connect 40 0 3 1;
#X connect 41 0 40 1;
#X connect 42 0 43 0;
#X connect 43 0 44 0;
#X connect 44 0 21 0;
#X connect 45 0 22 0;
#X connect 46 0 16 0;
#X connect 46 0 45 0;
#X coords 0 -1 1 1 85 60 1 100 100;
#X restore 94 49 pd looper1;
