#N canvas 753 105 508 378 10;
#X obj 80 56 inlet;
#X obj 179 54 inlet;
#X obj 80 277 readsf~;
#X msg 80 228 start;
#X obj 80 98 bng 15 250 50 0 empty empty empty 17 7 0 10 -262144 -1
-1;
#X obj 80 175 t b b b;
#X obj 80 330 dac~;
#X obj 80 304 *~;
#X floatatom 155 280 5 0 0 0 - - -;
#X msg 156 250 1;
#X msg 225 108 ./qq/2.wav;
#X msg 154 214 open ./qq/1.wav;
#X obj 302 214 spigot;
#X obj 335 169 tgl 15 0 empty empty empty 17 7 0 10 -262144 -1 -1 0
1;
#X obj 335 57 inlet;
#X text 333 25 loop the sound;
#X text 175 23 filename;
#X text 76 21 play;
#X connect 0 0 4 0;
#X connect 2 0 7 0;
#X connect 2 1 12 0;
#X connect 3 0 2 0;
#X connect 4 0 5 0;
#X connect 5 0 3 0;
#X connect 5 1 9 0;
#X connect 5 2 11 0;
#X connect 7 0 6 0;
#X connect 7 0 6 1;
#X connect 8 0 7 1;
#X connect 9 0 8 0;
#X connect 11 0 2 0;
#X connect 12 0 4 0;
#X connect 13 0 12 1;
#X connect 14 0 13 0;
