#N canvas 668 203 574 391 10;
#X obj 99 136 bng 15 250 50 0 empty empty empty 17 7 0 10 -262144 -1
-1;
#X msg 99 167 1 10 \, 0 1000 10;
#X obj 99 209 vline~;
#X obj 99 245 *~;
#X obj 99 292 dac~;
#X floatatom 328 118 5 0 0 0 - - -;
#X obj 198 249 osc~ 220;
#X obj 162 316 phasor~;
#X obj 238 194 osc~ 220;
#X obj 322 214 adc~;
#X obj 322 246 fiddle~ 4096;
#X obj 322 279 0;
#X obj 322 312 s pitch;
#X obj 160 99 bng 15 250 50 0 empty empty empty 17 7 0 10 -262144 -1
-1;
#X obj 160 134 metro 1200;
#X floatatom 276 289 5 0 0 0 - - -;
#X floatatom 274 333 5 0 0 0 - - -;
#X floatatom 385 287 5 0 0 0 - - -;
#X floatatom 436 302 5 0 0 0 - - -;
#X obj 238 160 mtof 27;
#X msg 252 117 27;
#X obj 328 65 r tone;
#X obj 252 64 loadbang;
#X obj 160 50 r button3;
#X connect 0 0 1 0;
#X connect 1 0 2 0;
#X connect 2 0 3 0;
#X connect 3 0 4 0;
#X connect 3 0 4 1;
#X connect 5 0 19 0;
#X connect 8 0 3 1;
#X connect 9 0 10 0;
#X connect 10 0 11 0;
#X connect 10 0 15 0;
#X connect 10 1 16 0;
#X connect 10 2 17 0;
#X connect 10 3 18 0;
#X connect 11 0 12 0;
#X connect 13 0 14 0;
#X connect 14 0 1 0;
#X connect 19 0 8 0;
#X connect 20 0 19 0;
#X connect 21 0 5 0;
#X connect 22 0 20 0;
#X connect 23 0 13 0;
