#N canvas 33 29 879 565 10;
#X declare -path .;
#X declare -path rj;
#X declare -path ../pd;
#X declare -path ../../pd;
#X declare -path sounds;
#N canvas 0 22 588 274 LICENSE 0;
#X text 79 84 (c) 2008 Reality Jockey;
#X text 57 36 Released under the GNU General Public License ver. 3
or later. See the file LICENSE.txt for the full text.;
#X restore 571 80 pd LICENSE;
#X obj 71 83 soundinput;
#X obj 73 491 soundoutput;
#X obj 571 108 OVERVIEW;
#X text 27 23 RjDj Scene Template - _main.pd;
#X obj 571 24 declare -path .;
#X obj 571 52 declare -path rj;
#X text 639 108 of all RjDj abstractions;
#N canvas 554 117 387 383 onset_detection 0;
#X obj 37 87 *~;
#X obj 100 66 line~;
#X msg 100 43 0 \, 1 200;
#X obj 100 20 loadbang;
#X obj 37 44 inlet~;
#X obj 36 209 -;
#X obj 36 231 abs;
#X obj 33 301 outlet;
#N canvas 365 118 333 256 highpass 0;
#X obj 86 86 inlet~;
#X obj 84 168 outlet~;
#X obj 86 114 hip~ 3000;
#X obj 84 136 hip~ 3000;
#X connect 0 0 2 0;
#X connect 2 0 3 0;
#X connect 3 0 1 0;
#X restore 36 116 pd highpass;
#X obj 33 281 sel 1;
#X obj 35 252 > 25;
#X obj 37 143 env~ 64;
#X text 266 397 comment;
#X text 32 329 Send bang if the mic receives an onset;
#X obj 36 164 t f f;
#X connect 0 0 8 0;
#X connect 1 0 0 1;
#X connect 2 0 1 0;
#X connect 3 0 2 0;
#X connect 4 0 0 0;
#X connect 5 0 6 0;
#X connect 6 0 10 0;
#X connect 8 0 11 0;
#X connect 9 0 7 0;
#X connect 10 0 9 0;
#X connect 11 0 14 0;
#X connect 14 0 5 1;
#X connect 14 1 5 0;
#X restore 72 194 pd onset_detection;
#N canvas 152 151 1222 688 playsoundfiles 1;
#X obj 49 568 outlet~;
#X text 926 10 Load the samples;
#X text 1051 24 wav files with your own;
#X text 1051 9 You may replace these;
#X obj 928 65 u_samplebank brightondarkairsfeer brightondarkairsfeer.wav
;
#X obj 930 87 u_samplebank brightonmystery brightonmystery.wav;
#X obj 931 113 u_samplebank churchsound churchsound.wav;
#X obj 932 138 u_samplebank Doom2 Doom2.wav;
#X obj 935 158 u_samplebank drone drone.wav;
#X obj 933 181 u_samplebank enjoyable_game enjoyable_game.wav;
#X obj 934 207 u_samplebank enough_info enough_info.wav;
#X obj 932 232 u_samplebank entitled_2_answer entitled_2_answer.wav
;
#X obj 931 253 u_samplebank evilsidbass evilsidbass.wav;
#X obj 933 275 u_samplebank feel_much_better feel_much_better.wav;
#X obj 933 301 u_samplebank get_out get_out.wav;
#X obj 934 325 u_samplebank hal_9000 hal_9000.wav;
#X obj 932 351 u_samplebank koud_clean1 koud_clean1.wav;
#X obj 931 372 u_samplebank mind_is_going mind_is_going.wav;
#X obj 933 394 u_samplebank mysteryloop01 mysteryloop01.wav;
#X obj 933 420 u_samplebank party party.wav;
#X obj 937 450 u_samplebank radar radar.wav;
#X obj 935 475 u_samplebank skatepark skatepark.wav;
#X obj 934 496 u_samplebank sweepymysterie sweepymysterie.wav;
#X obj 936 518 u_samplebank welcome welcome.wav;
#X obj 929 44 u_samplebank 8bitsession 8bitsession.wav;
#X msg 277 112 brightondarkairsfeer;
#X msg 412 110 brightonmystery;
#X msg 518 108 churchsound;
#X msg 601 107 Doom2;
#X msg 676 108 drone;
#X msg 77 114 enjoyable_game;
#X msg 48 195 enough_info;
#X msg 136 195 evilsidbass;
#X msg 223 196 feel_much_better;
#X msg 340 194 get_out;
#X msg 482 194 hal_9000;
#X msg 398 194 koud_clean1;
#X msg 653 194 mind_is_going;
#X msg 549 195 mysteryloop01;
#X msg 855 104 party;
#X msg 767 107 radar;
#X msg 652 298 skatepark;
#X msg 821 192 sweepymysterie;
#X msg 759 192 welcome;
#X msg 198 112 8bitsession;
#X obj 49 55 inlet;
#X obj 48 229 s_fplaytable;
#X obj 138 228 s_fplaytable;
#X obj 224 227 s_fplaytable;
#X obj 72 145 s_fplaytable;
#X obj 193 140 s_fplaytable;
#X obj 285 140 s_fplaytable;
#X obj 407 141 s_fplaytable;
#X obj 505 140 s_fplaytable;
#X obj 598 143 s_fplaytable;
#X obj 683 144 s_fplaytable;
#X obj 766 145 s_fplaytable;
#X obj 856 146 s_fplaytable;
#X obj 319 227 s_fplaytable;
#X obj 440 222 s_fplaytable;
#X obj 532 222 s_fplaytable;
#X obj 650 227 s_fplaytable;
#X obj 758 229 s_fplaytable;
#X obj 850 229 s_fplaytable;
#X obj 656 328 s_fplaytable;
#X connect 25 0 51 0;
#X connect 26 0 52 0;
#X connect 27 0 53 0;
#X connect 28 0 54 0;
#X connect 29 0 55 0;
#X connect 30 0 49 0;
#X connect 31 0 46 0;
#X connect 32 0 47 0;
#X connect 33 0 48 0;
#X connect 44 0 50 0;
#X connect 45 0 30 0;
#X connect 45 0 31 0;
#X connect 45 0 44 0;
#X connect 45 0 32 0;
#X connect 45 0 33 0;
#X connect 45 0 25 0;
#X connect 45 0 26 0;
#X connect 45 0 27 0;
#X connect 45 0 28 0;
#X connect 45 0 29 0;
#X connect 46 0 0 0;
#X connect 47 0 0 0;
#X connect 48 0 0 0;
#X connect 49 0 0 0;
#X connect 50 0 0 0;
#X connect 51 0 0 0;
#X connect 52 0 0 0;
#X connect 53 0 0 0;
#X connect 54 0 0 0;
#X connect 55 0 0 0;
#X restore 72 289 pd playsoundfiles;
#X obj 72 232 bng 30 250 50 0 empty empty empty 17 7 0 10 -262144 -1
-1;
#X text 218 290 Soundfiles are played when the microphone picks up
an onset;
#N canvas 0 22 448 215 more_paths 0;
#X text 27 19 You can add more paths here as well \, like the path
to soundoutput.pd on your computer etc.;
#X obj 36 57 declare -path ../pd;
#X obj 35 79 declare -path ../../pd;
#X restore 707 49 pd more_paths;
#X obj 569 135 declare -path sounds;
#X msg 132 220 8bitsession;
#X msg 330 57 1;
#X obj 330 18 loadbang;
#X obj 216 219 r m;
#X obj 37 265 bng 15 250 50 0 empty empty empty 17 7 0 10 -262144 -1
-1;
#X connect 1 0 8 0;
#X connect 1 1 8 0;
#X connect 8 0 10 0;
#X connect 9 0 2 0;
#X connect 9 0 2 1;
#X connect 14 0 9 0;
#X connect 15 0 1 2;
#X connect 15 0 2 2;
#X connect 15 0 14 0;
#X connect 16 0 15 0;
#X connect 17 0 9 0;
#X connect 18 0 9 0;
