#N canvas 917 105 450 300 10;
#X obj 69 23 r trigger;
#X obj 69 66 bng 15 250 50 0 empty empty empty 17 7 0 10 -262144 -1
-1;
#X msg 69 97 1 10 \, 0 1000 10;
#X obj 69 139 vline~;
#X obj 69 175 *~;
#X obj 69 222 dac~;
#X obj 208 21 r midinote;
#X floatatom 208 56 5 0 0 0 - - -;
#X obj 208 90 mtof;
#X obj 168 179 osc~ 220;
#X obj 132 246 phasor~;
#X obj 208 124 osc~ 220;
#X obj 292 144 adc~;
#X obj 292 176 fiddle~ 4096;
#X obj 292 209 0;
#X obj 292 242 s pitch;
#X connect 0 0 1 0;
#X connect 1 0 2 0;
#X connect 2 0 3 0;
#X connect 3 0 4 0;
#X connect 4 0 5 0;
#X connect 4 0 5 1;
#X connect 6 0 7 0;
#X connect 7 0 8 0;
#X connect 8 0 11 0;
#X connect 11 0 4 1;
#X connect 12 0 13 0;
#X connect 13 0 14 0;
#X connect 14 0 15 0;
