#N canvas 168 22 879 565 10;
#X declare -path .;
#X declare -path rj;
#X declare -path ../pd;
#X declare -path ../../pd;
#N canvas 0 22 588 274 LICENSE 0;
#X text 79 84 (c) 2008 Reality Jockey;
#X text 57 36 Released under the GNU General Public License ver. 3
or later. See the file LICENSE.txt for the full text.;
#X restore 571 80 pd LICENSE;
#X obj 71 83 soundinput;
#X obj 73 491 soundoutput;
#X obj 571 108 OVERVIEW;
#X text 27 23 RjDj Scene Template - _main.pd;
#X obj 571 24 declare -path .;
#X obj 571 52 declare -path rj;
#X text 639 108 of all RjDj abstractions;
#N canvas 554 117 387 383 onset_detection 0;
#X obj 37 87 *~;
#X obj 100 66 line~;
#X msg 100 43 0 \, 1 200;
#X obj 100 20 loadbang;
#X obj 37 44 inlet~;
#X obj 36 209 -;
#X obj 36 231 abs;
#X obj 33 301 outlet;
#N canvas 365 118 333 256 highpass 0;
#X obj 86 86 inlet~;
#X obj 84 168 outlet~;
#X obj 86 114 hip~ 3000;
#X obj 84 136 hip~ 3000;
#X connect 0 0 2 0;
#X connect 2 0 3 0;
#X connect 3 0 1 0;
#X restore 36 116 pd highpass;
#X obj 33 281 sel 1;
#X obj 35 252 > 25;
#X obj 37 143 env~ 64;
#X text 266 397 comment;
#X text 32 329 Send bang if the mic receives an onset;
#X obj 36 164 t f f;
#X connect 0 0 8 0;
#X connect 1 0 0 1;
#X connect 2 0 1 0;
#X connect 3 0 2 0;
#X connect 4 0 0 0;
#X connect 5 0 6 0;
#X connect 6 0 10 0;
#X connect 8 0 11 0;
#X connect 9 0 7 0;
#X connect 10 0 9 0;
#X connect 11 0 14 0;
#X connect 14 0 5 1;
#X connect 14 1 5 0;
#X restore 72 194 pd onset_detection;
#X text 207 195 Click to see inside;
#N canvas 488 58 799 659 playsoundfiles 1;
#X obj 51 220 s_fplaytable;
#X obj 144 220 s_fplaytable;
#X msg 50 189 low;
#X msg 144 189 high;
#X obj 51 136 sel 0 1;
#X obj 50 73 inlet;
#X obj 51 254 outlet~;
#X text 386 10 Load the samples;
#X obj 51 116 random 2;
#X text 122 132 one of the two soundilfes;
#X text 121 118 This randomly chooses;
#X text 511 24 wav files with your own;
#X text 511 9 You may replace these;
#X obj 389 44 u_samplebank 8bit 8bitsession.wav;
#X obj 388 65 u_samplebank brightondarkairsfeer brightondarkairsfeer.wav
;
#X obj 390 87 u_samplebank brightonmystery brightonmystery.wav;
#X obj 391 113 u_samplebank churchsound churchsound.wav;
#X obj 392 138 u_samplebank Doom2 Doom2.wav;
#X obj 395 158 u_samplebank drone drone.wav;
#X obj 393 181 u_samplebank enjoyable_game enjoyable_game.wav;
#X obj 394 207 u_samplebank enough_info enough_info.wav;
#X obj 392 232 u_samplebank entitled_2_answer entitled_2_answer.wav
;
#X obj 391 253 u_samplebank evilsidbass evilsidbass.wav;
#X obj 393 275 u_samplebank feel_much_better feel_much_better.wav;
#X obj 393 301 u_samplebank get_out get_out.wav;
#X obj 394 326 u_samplebank hal_9000 hal_9000.wav;
#X obj 392 351 u_samplebank koud_clean1 koud_clean1.wav;
#X obj 391 372 u_samplebank mind_is_going mind_is_going.wav;
#X obj 393 394 u_samplebank mysteryloop01 mysteryloop01.wav;
#X obj 393 420 u_samplebank party party.wav;
#X obj 397 450 u_samplebank radar radar.wav;
#X obj 395 475 u_samplebank skatepark skatepark.wav;
#X obj 394 496 u_samplebank sweepymysterie sweepymysterie.wav;
#X obj 396 518 u_samplebank welcome welcome.wav;
#X connect 0 0 6 0;
#X connect 1 0 6 0;
#X connect 2 0 0 0;
#X connect 3 0 1 0;
#X connect 4 0 2 0;
#X connect 4 1 3 0;
#X connect 5 0 8 0;
#X connect 8 0 4 0;
#X restore 72 289 pd playsoundfiles;
#X obj 72 232 bng 30 250 50 0 empty empty empty 17 7 0 10 -262144 -1
-1;
#X text 218 290 Soundfiles are played when the microphone picks up
an onset;
#X text 220 211 comment;
#N canvas 0 22 448 215 more_paths 0;
#X text 27 19 You can add more paths here as well \, like the path
to soundoutput.pd on your computer etc.;
#X obj 36 57 declare -path ../pd;
#X obj 35 79 declare -path ../../pd;
#X restore 707 49 pd more_paths;
#X connect 1 0 8 0;
#X connect 1 1 8 0;
#X connect 8 0 11 0;
#X connect 10 0 2 0;
#X connect 10 0 2 1;
#X connect 11 0 10 0;
